<svg xmlns="http://www.w3.org/2000/svg" aria-labelledby="title desc" style="--ink:#14323b;--eucalyptus:#28685b;--terracotta:#c65c3c" viewBox="0 0 244 48"><title id="title">Rumbo AU</title><desc id="desc">Identidad gráfica de Rumbo AU con su ruta entre dos puntos.</desc><g transform="translate(2 4)"><circle cx="7" cy="29" r="4.5" fill="var(--terracotta)"/><circle cx="33" cy="10" r="4.5" fill="var(--eucalyptus)"/><path fill="none" stroke="var(--ink)" stroke-dasharray="2 4" stroke-linecap="round" stroke-linejoin="round" stroke-width="2" d="M10.8 27.2C17 24.6 17.5 14.1 29 11.5m-3.5-2.9 7.4 1.4-3.2 6.8"/></g><path fill="none" stroke="var(--ink)" stroke-linecap="round" stroke-linejoin="round" stroke-width="5" d="M52 38V11h10c9 0 9 13 0 13H52m10 0 9 14m7-27v18c0 12 17 12 17 0V11m9 27V11l10 17 10-17v27m10-27v27h12c10 0 10-14 0-14h-12m11 0c9 0 9-13 0-13h-11m40 0c-15 0-15 27 0 27s15-27 0-27"/><circle cx="198" cy="34" r="3" fill="var(--terracotta)"/><path fill="none" stroke="var(--terracotta)" stroke-linecap="round" stroke-linejoin="round" stroke-width="5" d="m207 38 9-27 9 27m-14-11h10m10-16v18c0 12 11 12 11 0V11"/></svg>